<?xml version="1.0" encoding="UTF-8" standalone="no"?><svg xmlns="http://www.w3.org/2000/svg" xmlns:xlink="http://www.w3.org/1999/xlink" data-name="Layer 2" fill="#f4f4f4" height="321.7" preserveAspectRatio="xMidYMid meet" version="1" viewBox="-2.9 0.0 440.6 321.7" width="440.6" zoomAndPan="magnify"><g id="change1_1"><path d="M127.12,31.47A31.47,31.47,0,1,1,95.65,0,31.51,31.51,0,0,1,127.12,31.47Zm16.19,80.93C143.31,102,134.72,93,124,92.08V92h-1.71l-.7,0v0c-10.69.91-19.27,9.89-19.27,20.32A19.93,19.93,0,0,0,108,126.18c4.63,5.34,6,12.44,6.35,15.71a2,2,0,0,0-.6,1.43,2,2,0,0,0,1.24,1.85v1.13a2,2,0,0,0,0,3.71v1.07a2,2,0,0,0,.77,3.87h.78v.36a3.84,3.84,0,0,0,3.83,3.84h5a3.84,3.84,0,0,0,3.84-3.84V155h.91a2,2,0,0,0,.48-4v-.89a2,2,0,0,0,0-3.89v-1a2,2,0,0,0,.74-3.53c.4-3.33,1.77-10.29,6.33-15.55A19.89,19.89,0,0,0,143.31,112.4ZM337,60.61a29,29,0,0,1-12.63,7.26l-2.16,7.55-11.11,0-2.54-7.67a29.22,29.22,0,0,1-12.32-7.18l-7.62,1.59-5.53-9.63,5.29-5.49a29.17,29.17,0,0,1-.93-7.33,29.49,29.49,0,0,1,.86-7.07l-5.42-6.16L288.53,17l7.67,2a29.21,29.21,0,0,1,12.5-7.26l2.19-7.53H322l2.46,7.51A29.14,29.14,0,0,1,337,18.88L344.52,17l5.64,9.56-5.27,6a29.37,29.37,0,0,1,.9,7.24,29,29,0,0,1-.93,7.32l5.29,5.5-5.53,9.63ZM316.54,25.08a14.59,14.59,0,1,0,14.58,14.58A14.6,14.6,0,0,0,316.54,25.08Zm60.12,75.41,3.44,3.57-3.82,6.64-4.94-1a19.08,19.08,0,0,1-7.89,4.54L362,119.1l-7.66,0-1.65-5a19,19,0,0,1-7.7-4.48l-4.94,1-3.82-6.64,3.44-3.57a19,19,0,0,1-.56-4.58,18.72,18.72,0,0,1,.52-4.41l-3.52-4L340,80.9l5,1.27a19.08,19.08,0,0,1,7.79-4.52l1.42-4.89h7.66l1.6,4.87a18.94,18.94,0,0,1,7.83,4.52l4.88-1.25,3.9,6.6-3.43,3.89a18.93,18.93,0,0,1,0,9.1ZM358.13,86.92a8.94,8.94,0,1,0,8.94,8.94A8.95,8.95,0,0,0,358.13,86.92Z" fill="#a4ced1"/></g><g id="change2_1"><path d="M70.44,97.79A17.22,17.22,0,1,1,53.22,80.58,17.24,17.24,0,0,1,70.44,97.79Z" fill="#ffffff"/></g><g id="change3_1"><path d="M53.22,115.38A17.59,17.59,0,1,1,70.81,97.79,17.62,17.62,0,0,1,53.22,115.38Zm0-34.42A16.84,16.84,0,1,0,70.06,97.79,16.86,16.86,0,0,0,53.22,81Z" fill="inherit"/></g><g id="change1_2"><path d="M166.81,264.09c-37,10.32-29.43,51.57-29.43,51.57h-4S123.58,276,121,262.59c-5.09-26.74,39.24-49.81,39.24-49.81Zm60.22,0c37,10.32,29.43,51.57,29.43,51.57h4s9.78-39.69,12.33-53.07c5.09-26.74-39.24-49.81-39.24-49.81Z" fill="#a4ced1"/></g><g id="change2_2"><path d="M230,267.77c-1.16,4.17-2.43,8.4-3.79,12.55a2.44,2.44,0,0,1-2.33,1.69H195v-.13H168.81a2.45,2.45,0,0,1-2.33-1.69c-1.35-4.14-2.6-8.33-3.73-12.43a268.73,268.73,0,0,1-8.62-93.54A292,292,0,0,1,170,100.93c.28-.76.55-1.53.82-2.28l.31-.83c.82-2.24,1.7-4.54,2.6-6.82l.09-.23c.1-.26.21-.53.31-.8l.85-2.08c.23-.58.47-1.15.7-1.72q.57-1.36,1.14-2.7l.48-1.1c0-.12.09-.23.14-.33l0-.08.42-.95c2-4.47,4-8.87,6.14-13.09l.58-1.17.74-1.45.37-.7c.92-1.77,1.84-3.51,2.75-5.16l.09-.16.15-.27.7-1.27v0l.53-.94V56.7l.12-.12c.18-.33.36-.64.54-.95l.08-.13.2-.36.23-.39.58-1c.14-.25.29-.5.43-.73l.08-.13.2-.34v0l0-.07c.1-.16.2-.32.29-.48l.16-.26.23-.37a3.79,3.79,0,0,1,3.22-1.83,3.84,3.84,0,0,1,3.26,1.76l.73,1.15c.13.21.27.42.4.64.88,1.4,1.77,2.87,2.65,4.37l.07.11.14.24c.28.47.56,1,.85,1.47l.13.22.16.28c.19.34.4.69.6,1s.3.54.45.81l.7,1.25.13.25.34.62.24.44.09.16.63,1.18.07.12.18.34L209,67.4l.76,1.45.5,1c.09.19.17.36.26.53l.26.51c2.65,5.25,5.18,10.73,7.53,16.3l.17.38c.05.14.11.28.17.42.92,2.2,1.82,4.43,2.67,6.61l.38,1,.36,1c.12.3.23.6.34.9.49,1.29.93,2.48,1.34,3.64a276.69,276.69,0,0,1,15.64,72.56A273.11,273.11,0,0,1,230,267.77Z" fill="#ffffff"/></g><g id="change3_2"><path d="M223.91,282.39H195a.37.37,0,0,1-.28-.13H168.82a2.83,2.83,0,0,1-2.7-1.95c-1.35-4.15-2.6-8.33-3.73-12.45a269,269,0,0,1-8.63-93.67,291.67,291.67,0,0,1,15.93-73.38c.27-.77.55-1.53.82-2.29l.3-.83c.83-2.23,1.7-4.53,2.61-6.83l.41-1,.84-2.09.71-1.71c.38-.92.76-1.82,1.14-2.71l.61-1.43c.17-.39.31-.7.44-1,2-4.48,4-8.89,6.16-13.13l.59-1.17c.25-.5.5-1,.74-1.45l.37-.71c.91-1.77,1.84-3.5,2.75-5.16l1.45-2.6a.56.56,0,0,1,.09-.22l.08-.09.52-.91,1.1-1.87c.14-.25.29-.5.43-.73l.27-.46a.41.41,0,0,1,.08-.12l.25-.42.18-.3.23-.38a4.17,4.17,0,0,1,3.53-2h0A4.21,4.21,0,0,1,200,51.09c.24.36.48.74.74,1.15l.4.64c.89,1.42,1.78,2.89,2.65,4.38l.22.36c.27.47.55,1,.85,1.46l.88,1.56c.15.26.31.53.46.81L207,63l.34.62c.07.14.16.29.24.44l.23.43c.17.3.33.6.49.91l1,1.87.76,1.46,1,2c2.64,5.24,5.18,10.73,7.54,16.32l.33.8c.92,2.19,1.82,4.42,2.68,6.63l1.08,2.84c.49,1.29.93,2.48,1.35,3.64a277,277,0,0,1,15.65,72.66,273.35,273.35,0,0,1-9.32,94.29c-1.16,4.18-2.44,8.41-3.79,12.57A2.83,2.83,0,0,1,223.91,282.39Zm-28.59-.75h28.59a2.08,2.08,0,0,0,2-1.44c1.35-4.14,2.62-8.36,3.78-12.53a273.1,273.1,0,0,0,9.3-94,276.65,276.65,0,0,0-15.62-72.46c-.42-1.16-.85-2.35-1.34-3.64l-1.08-2.83c-.86-2.2-1.75-4.42-2.67-6.61l-.33-.8c-2.36-5.57-4.89-11-7.52-16.27l-1-2-.75-1.45-1-1.86c-.16-.31-.32-.62-.49-.92l-.23-.42c-.08-.16-.16-.3-.24-.44l-.33-.62-.84-1.5-.45-.8-.88-1.55L203.33,58l-.21-.35c-.87-1.48-1.76-3-2.64-4.37l-.4-.63c-.26-.4-.5-.79-.74-1.15a3.46,3.46,0,0,0-2.94-1.59h0a3.43,3.43,0,0,0-2.9,1.65l-.23.38-.16.26c-.1.18-.19.33-.29.48l-.37-.11.32.19-.28.47-.42.72L191,55.82c-.17.3-.35.62-.54.94a.22.22,0,0,1-.05.08l0,0a.62.62,0,0,1,0,.1l-1.48,2.66c-.91,1.64-1.83,3.37-2.75,5.14l-.36.7c-.25.47-.49,1-.74,1.45l-.59,1.16c-2.12,4.23-4.18,8.63-6.13,13.08-.15.33-.28.64-.41,1l-.65,1.51q-.57,1.32-1.14,2.7L175.36,88c-.27.68-.56,1.38-.84,2.08l-.4,1c-.91,2.29-1.78,4.58-2.6,6.81l-.3.83c-.28.75-.55,1.51-.82,2.28a290.68,290.68,0,0,0-15.89,73.2,268.27,268.27,0,0,0,8.6,93.41c1.13,4.1,2.38,8.27,3.73,12.41a2.07,2.07,0,0,0,2,1.43H195A.37.37,0,0,1,195.32,281.64Z" fill="inherit"/></g><g id="change2_3"><path d="M169.27,278.63v2.72a6,6,0,0,0,5.94,5.94h42.31a6,6,0,0,0,5.95-5.94v-2.72Z" fill="#ffffff"/></g><g id="change3_3"><path d="M217.52,287.67H175.21a6.32,6.32,0,0,1-6.31-6.32v-2.72a.37.37,0,0,1,.37-.38h54.2a.38.38,0,0,1,.37.38v2.72A6.33,6.33,0,0,1,217.52,287.67ZM169.65,279v2.35a5.57,5.57,0,0,0,5.56,5.57h42.31a5.58,5.58,0,0,0,5.57-5.57V279Z" fill="inherit"/></g><g id="change3_4"><path d="M224,101.86l-.85-.06c-7.9-.52-22-1.4-27.78-1.4-5,0-16.21.7-24.75,1.28l-.85.06.28-.81c.28-.76.55-1.53.82-2.28l.31-.83c.82-2.24,1.7-4.54,2.6-6.82l.09-.23c.1-.26.21-.53.31-.8l.85-2.08c.23-.58.47-1.15.7-1.72q.57-1.36,1.14-2.7l.48-1.1c0-.12.09-.23.14-.33l0-.08.42-.95c2-4.47,4-8.87,6.14-13.09l.58-1.17.74-1.45.37-.7c.92-1.77,1.84-3.51,2.75-5.16l.09-.16.15-.27q.34-.65.69-1.26l0,0,.53-.94V56.7l.12-.12c.18-.33.36-.64.54-.95l.08-.13.2-.36.23-.39.58-1c.14-.25.29-.5.43-.73l.08-.13.2-.34v0l0-.07c.1-.16.2-.32.29-.48l.16-.26.23-.37a3.82,3.82,0,0,1,6.48-.07l.73,1.15c.13.21.27.42.4.64.88,1.4,1.77,2.87,2.65,4.37l.07.11.14.24c.28.47.56,1,.85,1.47l.13.22.16.28c.19.34.4.69.6,1l.45.81.7,1.25.13.25.34.62.24.44c.24.43.48.88.72,1.34l.07.12.18.34L209,67.4l.76,1.45.5,1c.09.19.17.36.26.53l.26.51c2.65,5.25,5.18,10.73,7.53,16.3l.17.38c.05.14.11.28.17.42.92,2.2,1.82,4.43,2.67,6.61l.38,1,.36,1c.12.3.23.6.34.9.49,1.29.93,2.48,1.34,3.64Zm-61.43,165.2.19.7c1.13,4.1,2.38,8.29,3.73,12.43a2.45,2.45,0,0,0,2.33,1.69H195V282h28.87a2.44,2.44,0,0,0,2.33-1.69c1.36-4.15,2.63-8.38,3.79-12.55l.19-.71Z" fill="inherit"/></g><g id="change2_4"><path d="M201,220.47l-2.66,95.75h-3.86v-.54l-2.66-95.21a4.6,4.6,0,0,1,7.89-3.34A4.53,4.53,0,0,1,201,220.47Z" fill="#ffffff"/></g><g id="change3_5"><path d="M198.3,316.59h-3.86a.37.37,0,0,1-.37-.36l0-.54-2.65-95.21a5,5,0,0,1,8.53-3.61h0a4.92,4.92,0,0,1,1.41,3.61l-2.67,95.75A.37.37,0,0,1,198.3,316.59Zm-3.49-.75h3.12l2.66-95.38a4.16,4.16,0,0,0-1.2-3.06h0a4.22,4.22,0,0,0-7.24,3.06Z" fill="inherit"/></g><g id="change1_3"><path d="M197.93,106.54a1.05,1.05,0,1,1-1.05-1.05A1.06,1.06,0,0,1,197.93,106.54Zm6.42-1.05a1,1,0,1,0,1.05,1.05A1,1,0,0,0,204.35,105.49Zm7.46.46a1,1,0,1,0,1.05,1A1,1,0,0,0,211.81,106Zm7.47.7a1,1,0,1,0,1.05,1A1,1,0,0,0,219.28,106.65Zm-30.68-.11a1,1,0,1,0,1.05-1.05A1.06,1.06,0,0,0,188.6,106.54Zm-7.47.46a1.05,1.05,0,1,0,1.05-1A1,1,0,0,0,181.13,107Zm-7.46.7a1.05,1.05,0,1,0,1.05-1A1,1,0,0,0,173.67,107.7Zm17.67,153.15h0a1.3,1.3,0,0,0-1.3-1.3h0a1.3,1.3,0,0,0-1.3,1.3h0a1.3,1.3,0,0,0,1.3,1.29h0A1.3,1.3,0,0,0,191.34,260.85Zm-6.92,0h0a1.3,1.3,0,0,0-1.29-1.3h0a1.3,1.3,0,0,0-1.3,1.3h0a1.3,1.3,0,0,0,1.3,1.29h0A1.29,1.29,0,0,0,184.42,260.85Zm-6.91,0h0a1.3,1.3,0,0,0-1.3-1.3h0a1.3,1.3,0,0,0-1.29,1.3h0a1.29,1.29,0,0,0,1.29,1.29h0A1.3,1.3,0,0,0,177.51,260.85Zm-6.7,0h0a1.3,1.3,0,0,0-1.29-1.3h0a1.3,1.3,0,0,0-1.3,1.3h0a1.3,1.3,0,0,0,1.3,1.29h0A1.29,1.29,0,0,0,170.81,260.85Zm54,0h0a1.3,1.3,0,0,0-1.29-1.3h0a1.3,1.3,0,0,0-1.3,1.3h0a1.3,1.3,0,0,0,1.3,1.29h0A1.29,1.29,0,0,0,224.79,260.85Zm-6.91,0h0a1.3,1.3,0,0,0-1.29-1.3h0a1.3,1.3,0,0,0-1.3,1.3h0a1.3,1.3,0,0,0,1.3,1.29h0A1.29,1.29,0,0,0,217.88,260.85Zm-6.91,0h0a1.3,1.3,0,0,0-1.3-1.3h0a1.3,1.3,0,0,0-1.29,1.3h0a1.29,1.29,0,0,0,1.29,1.29h0A1.3,1.3,0,0,0,211,260.85Zm-6.7,0h0a1.3,1.3,0,0,0-1.29-1.3h0a1.3,1.3,0,0,0-1.3,1.3h0a1.3,1.3,0,0,0,1.3,1.29h0A1.29,1.29,0,0,0,204.27,260.85Zm17.91-96.49a25.56,25.56,0,1,0-25.56,25.56A25.58,25.58,0,0,0,222.18,164.36Zm-5.6,0a20,20,0,1,1-20-20A20,20,0,0,1,216.58,164.36Z" fill="#a4ced1"/></g><g id="change3_6"><path d="M317,229.89h-2.77l4.9,16.85H295.16l-4.84-16.85h-2.77l24.9,85.77H315l-3.83-13.33h24.11l3.87,13.33h2.51Zm-21,19.62h24l4.31,14.84h-24Zm5.06,17.6h24L329.33,282H305.28Zm9.32,32.45-4.26-14.84h24.05l4.31,14.84ZM252,246.74h-24l4.9-16.85H230.2l-24.65,85.77h2.51l3.88-13.33H236l-3.83,13.33h2.52l24.9-85.77h-2.77Zm-15.18,52.82h-24.1l4.31-14.84h24ZM241.9,282H217.85l4.31-14.84h24Zm5.06-17.6H223l4.31-14.84h23.95Z" fill="inherit"/></g><g id="change2_5"><path d="M324.33,227.06v5.65H220.84v-5.65Z" fill="#ffffff"/></g><g id="change3_7"><path d="M324.33,233.08H220.84a.37.37,0,0,1-.38-.37v-5.65a.37.37,0,0,1,.38-.37H324.33a.37.37,0,0,1,.38.37v5.65A.37.37,0,0,1,324.33,233.08Zm-103.12-.75H324v-4.89H221.21Z" fill="inherit"/></g><g id="change1_4"><path d="M52,107.36v-2.23a9.34,9.34,0,0,1-4-1l.7-2.74a8.26,8.26,0,0,0,3.89,1c1.34,0,2.25-.51,2.25-1.45s-.75-1.45-2.48-2c-2.51-.84-4.22-2-4.22-4.29,0-2.06,1.45-3.68,4-4.17V88.23h2.3v2.06a8.28,8.28,0,0,1,3.39.78l-.68,2.65a7.66,7.66,0,0,0-3.37-.8c-1.52,0-2,.65-2,1.31s.82,1.27,2.82,2c2.79,1,3.91,2.27,3.91,4.38S57,104.5,54.28,105v2.39Z" fill="#a4ced1"/></g><g id="change3_8"><path d="M276.65,226.09a1,1,0,0,1-1,1.26H254.75a.56.56,0,0,1-.26-1.06l11.23-5.85-.12-6.52h9.86l.16,8.28Zm26.87,0-1.57-6,0,0-1.37-6.22h-9.89l1.49,6.75-10.79,5.62a.56.56,0,0,0,.26,1.06h20.92A1,1,0,0,0,303.52,226.09Z" fill="inherit"/></g><g id="change2_6"><path d="M302.54,217H288.12l-.1-.43-9.85-40.36L276.5,217H262.16v-.55l-1.29-59.59v0l2.3-42,4.95.51-.05-.45h23l1.85,38.7Z" fill="#ffffff"/></g><g id="change3_9"><path d="M302.54,217.37H288.12a.36.36,0,0,1-.36-.28l-9.32-38.21L276.88,217a.38.38,0,0,1-.38.36H262.16a.37.37,0,0,1-.37-.36l-1.31-60.14,2.31-42a.33.33,0,0,1,.13-.26.37.37,0,0,1,.28-.09l4.48.46a.42.42,0,0,1,.1-.28.37.37,0,0,1,.28-.13h23a.38.38,0,0,1,.38.36l1.84,38.68,9.64,63.35a.4.4,0,0,1-.09.3A.34.34,0,0,1,302.54,217.37Zm-14.13-.75H302.1l-9.58-62.93v0L290.7,115.3H268.48v0a.39.39,0,0,1-.11.31.38.38,0,0,1-.3.11l-4.56-.47-2.29,41.58,1.3,59.76h13.61l1.65-40.42a.39.39,0,0,1,.34-.36.37.37,0,0,1,.4.28Z" fill="inherit"/></g><g id="change4_1"><path d="M225.47,79.55v7.69l-8.85-4.93-7.69-15.87,6.84,2.88,4.51,6.77Z" fill="#e5bfa7"/></g><g id="change3_10"><path d="M245.43,69.48c2.25-3-1.73-11.16-2.23-14.9-1.56-11.69,11.4-10.75,11.4-10.75,10.4-1,12.72,7.8,13.73,11.86,2,8,5.56,8.9,8.45,11.12s7.12,9.57,2.45,13.57c-2.13,1.82-28.14,6.33-32.47,4.89C241.8,83.63,243.17,72.54,245.43,69.48Z" fill="inherit"/></g><g id="change4_2"><path d="M265.86,72.07,253.75,74.6l-.32-7.47c-2.45.18-4.29-.49-5.51-2-3.56-4.41-.11-14.48,0-14.91l.59-1.7.48,1.74c1.62,5.89,10.24,4.75,10.32,4.74a2.52,2.52,0,0,1,2.62.83c1.14,1.61-.31,4.87-.79,5.85Z" fill="#e5bfa7"/></g><g id="change4_3"><path d="M247.1,110.41,230.72,115l-1.91,1.19-6.53.59L217,116a2,2,0,0,1-1.66-1.5,2.31,2.31,0,0,1-.56-1.85,1.79,1.79,0,0,1-.31-1.72,2.19,2.19,0,0,1,.22-.46,1.88,1.88,0,0,1-.3-1.27,1.77,1.77,0,0,1,.65-1.15l.15-.11H223a10.12,10.12,0,0,1-1.47-2.74l-.36-1.09,5.42,1.94,2.47,1.34L241.93,103Z" fill="#e5bfa7"/></g><g id="change1_5"><path d="M292.8,116.72s-11.27-.56-14.42,1.21c-7,3.91-16.34,1.55-16.34,1.55a32.78,32.78,0,0,0-1.6-10.43l-18.17,6.35-5-13.23,17.86-4.65A18.45,18.45,0,0,0,252.6,95,7.73,7.73,0,0,1,250,89.46l-8.87,5.45a4.67,4.67,0,0,1-4.57.42l-15.51-7,1.84-13.85,14.7,9.3,16.17-12c.06-.18.12-.34.17-.48s5.82-1,8.55-5.26a20.13,20.13,0,0,1,9,2.61,10.94,10.94,0,0,1,4.82,5.67l6.76,18.12Z" fill="#a4ced1"/></g><g id="change3_11"><path d="M268.5,120.57a29.61,29.61,0,0,1-6.55-.72.38.38,0,0,1-.27-.46.37.37,0,0,1,.45-.27c.1,0,9.28,2.27,16.06-1.52,3.22-1.8,14.16-1.28,14.63-1.26a.39.39,0,0,1,.35.4.34.34,0,0,1-.39.35c-.11,0-11.19-.53-14.22,1.16A20.77,20.77,0,0,1,268.5,120.57Z" fill="inherit"/></g><g id="change3_12"><path d="M428,317.74h-4.51L408.12,260.6l-.18-.67h6.38Zm-37.35-57.4-13.61,57.4h4.5l.11-.39,15.49-57.42h-6.39Z" fill="inherit"/></g><g id="change3_13"><path d="M399.52,159.28c-4.06-2-3.3-5.32-3.3-5.32.76-5.83,7.6-2.53,7.6-2.53,4.81-4.06,6.08,2.28,6.08,2.28,9.12-.26,6.08,8.1,6.08,8.1,6.33,10.13-8.11,11.9-8.11,11.9Z" fill="inherit"/></g><g id="change5_1"><path d="M398.19,186.82l1.23-10.16a11.66,11.66,0,0,1-5.21-1.47,3,3,0,0,1-1.52-2c-1.27-4.74,5.34-15.29,5.62-15.73l.42-.67.46.64a7.25,7.25,0,0,0,5.42,2.57,3.43,3.43,0,0,1,2.6,1.29,6.64,6.64,0,0,1,1.05,4.15,4.3,4.3,0,0,1,1.64-.38H410l.13.07a3.09,3.09,0,0,1,1.8,2.58c0,2-2.33,3.82-3.25,4.45l3.36,14.26Z" fill="#f2dcd1"/></g><g id="change2_7"><path d="M390.22 304.02L381.17 304.02 383.19 313.76 392.24 313.76 390.22 304.02z" fill="#ffffff"/></g><g id="change3_14"><path d="M392.24,314.13h-9.05a.37.37,0,0,1-.37-.3l-2-9.73a.41.41,0,0,1,.07-.32.42.42,0,0,1,.3-.13h9.05a.36.36,0,0,1,.36.29l2,9.74a.37.37,0,0,1-.07.31A.38.38,0,0,1,392.24,314.13Zm-8.75-.75h8.28l-1.86-9h-8.28Z" fill="inherit"/></g><g id="change2_8"><path d="M435.82,214c1.9.63-.83,5.25-2.64,9.5-2.38,5.54-4.49,11.61-5,23.49-.29,6.45-3.43,16.37-20.59,15.57H370.09v-4.48s27.45,2.9,43-.8c2.91-.69,9.47-2.11,10.55-11.61.66-5.79,2.61-16,5.28-22.7C430,220.34,432.65,213,435.82,214Z" fill="#ffffff"/></g><g id="change3_15"><path d="M409.46,263c-.62,0-1.26,0-1.91,0H370.09a.37.37,0,0,1-.37-.38v-4.48a.36.36,0,0,1,.12-.28.38.38,0,0,1,.29-.1c.27,0,27.57,2.86,42.9-.78l.12,0c3-.7,9.11-2.15,10.15-11.26.61-5.37,2.53-15.87,5.3-22.8l.24-.6c1.24-3.14,3.8-9.7,7.09-8.59a1.22,1.22,0,0,1,.77.7c.54,1.24-.63,3.75-2,6.65-.41.88-.82,1.78-1.2,2.66-2.23,5.2-4.45,11.28-5,23.36-.15,3.37-1.12,8.1-4.85,11.51C420.44,261.5,415.66,263,409.46,263Zm-39-.79h37.1c7,.32,12.19-1.1,15.61-4.22s4.46-7.77,4.61-11c.54-12.19,2.78-18.35,5-23.62.38-.89.8-1.79,1.21-2.67,1.17-2.52,2.38-5.11,2-6.05a.46.46,0,0,0-.31-.28c-2.6-.85-5.1,5.45-6.16,8.15l-.24.61c-2.74,6.86-4.65,17.28-5.25,22.6-1.1,9.63-7.85,11.23-10.72,11.91l-.13,0c-14.41,3.42-39.23,1.18-42.73.84Z" fill="inherit"/></g><g id="change2_9"><path d="M343.51 281.81L339.96 291.99 348.96 294.43 352.51 285.43 343.51 281.81z" fill="#ffffff"/></g><g id="change3_16"><path d="M349,294.8h-.1l-9-2.44a.36.36,0,0,1-.24-.18.44.44,0,0,1,0-.3l3.56-10.19a.34.34,0,0,1,.2-.21.33.33,0,0,1,.29,0l9,3.62a.36.36,0,0,1,.21.48l-3.55,9A.38.38,0,0,1,349,294.8Zm-8.52-3.07,8.3,2.25,3.29-8.35-8.29-3.33Z" fill="inherit"/></g><g id="change3_17"><path d="M393.48,316.57a1,1,0,0,1-1,1.3H370.82a.58.58,0,0,1-.27-1.09l12.26-6.39c4.13,3.73,9.05,0,9.05,0Zm-43.4-25.39s-5.68,2.43-8.78-2.19l-13.44,3.24a.58.58,0,0,0,0,1.13l21,5.23a1,1,0,0,0,1.29-1Z" fill="inherit"/></g><g id="change2_10"><path d="M429.81,226.09a4.41,4.41,0,0,1-3.32,1.51h-7.08l.78,6.43-31.74-.1L388,222.35l-1.21.88-10.86-2.64,9.2-31a7.53,7.53,0,0,1,4.6-4.91l8.86-3.28.45-.16.2.43a4.72,4.72,0,0,0,3.07,2.3c2.25.49,5-.61,8.27-3.27l.23-.19.28.1A69.74,69.74,0,0,1,422.39,186a9.88,9.88,0,0,1,4.57,7.12l3.91,29.43A4.42,4.42,0,0,1,429.81,226.09Z" fill="#ffffff"/></g><g id="change3_18"><path d="M420.19,234.4h0l-31.74-.09a.38.38,0,0,1-.38-.36l-.46-10.88-.64.47a.41.41,0,0,1-.31.06L375.8,221a.38.38,0,0,1-.23-.18.39.39,0,0,1,0-.3l9.2-31a7.93,7.93,0,0,1,4.83-5.16l9.31-3.44a.38.38,0,0,1,.46.19l.21.43a4.3,4.3,0,0,0,2.81,2.1c2.13.46,4.81-.61,7.95-3.19l.23-.19a.37.37,0,0,1,.36-.07l.29.1a72.36,72.36,0,0,1,11.41,5.43,10.26,10.26,0,0,1,4.74,7.39l3.91,29.43a4.79,4.79,0,0,1-4.75,5.43h-6.65l.72,6a.4.4,0,0,1-.09.3A.36.36,0,0,1,420.19,234.4Zm-31.38-.84,31,.09-.73-6a.38.38,0,0,1,.37-.42h7.08a4.05,4.05,0,0,0,4-4.58h0l-3.91-29.43a9.47,9.47,0,0,0-4.4-6.85A68.74,68.74,0,0,0,410.92,181l-.08,0-.07.06c-3.32,2.73-6.21,3.86-8.58,3.35a5,5,0,0,1-3.32-2.51l-.06-.13-9,3.33a7.15,7.15,0,0,0-4.37,4.66l-9.09,30.59,10.31,2.51,1.07-.78a.37.37,0,0,1,.38,0,.37.37,0,0,1,.21.32Z" fill="inherit"/></g><g id="change1_6"><path d="M418.66,255.1a13.61,13.61,0,0,1-7.53,2.81h0s-21.37,4.62-29.56,2.68l12.14,44.88-15.83.26s-8.79-27.86-13.74-43.74l-7.91,29.75-14.51-7.13s7.41-28,14-46.86a9.33,9.33,0,0,1,9.16-6.23l34,1.23,21.65.39S427.37,247.62,418.66,255.1Z" fill="#a4ced1"/></g><g id="change3_19"><path d="M412.08,230.58v2.69h-57.3l-9.11-24.88a2.05,2.05,0,0,1,1.93-2.76h34.74a2,2,0,0,1,1.92,1.35l8.63,23.6Z" fill="inherit"/></g><g id="change2_11"><path d="M345.35,205.63h34.74A2,2,0,0,1,382,207l9.62,26.29h-39.1l-9.1-24.88A2.05,2.05,0,0,1,345.35,205.63Z" fill="#ffffff"/></g><g id="change3_20"><path d="M391.63,233.65h-39.1a.37.37,0,0,1-.35-.25l-9.11-24.89a2.42,2.42,0,0,1,2.28-3.25h34.74a2.42,2.42,0,0,1,2.27,1.59l9.63,26.3a.38.38,0,0,1-.05.34A.38.38,0,0,1,391.63,233.65Zm-38.84-.75H391.1l-9.44-25.79a1.67,1.67,0,0,0-1.57-1.1H345.35a1.67,1.67,0,0,0-1.57,2.25Z" fill="inherit"/></g><g id="change1_7"><path d="M363.64,214.71c2-1,4.69.4,6,3s.68,5.6-1.34,6.57-4.69-.4-6-3.06S361.62,215.68,363.64,214.71Z" fill="#a4ced1"/></g><g id="change2_12"><path d="M51.53,182a13,13,0,0,1-3.43-9.27c.72-10.19,14.9-7.95,17.66-2.8s2.43,18.18-1.14,19.1c-1.42.36-4.45-.53-7.53-2.39L59,200.3H47.6Z" fill="#ffffff" fill-rule="evenodd"/></g><g id="change3_21"><path d="M59,200.67H47.6a.37.37,0,0,1-.29-.14.39.39,0,0,1-.08-.31l3.9-18.15a13.2,13.2,0,0,1-3.4-9.4A7.43,7.43,0,0,1,54,165.42c4.62-1,10.4,1.06,12.14,4.3,2.19,4.08,2.54,13.22.68,17.47a3.4,3.4,0,0,1-2,2.17c-1.48.38-4.29-.43-7.15-2l1.83,12.92a.4.4,0,0,1-.09.3A.35.35,0,0,1,59,200.67Zm-11-.75H58.59l-1.87-13.26a.37.37,0,0,1,.16-.36.36.36,0,0,1,.4,0c3.22,1.94,6.08,2.65,7.25,2.34.58-.14,1.12-.75,1.55-1.74,1.76-4,1.41-13-.65-16.82-1.57-2.92-7.07-4.83-11.32-3.91a6.71,6.71,0,0,0-5.63,6.57,12.5,12.5,0,0,0,3.34,9,.35.35,0,0,1,.08.32Z" fill="inherit"/></g><g id="change3_22"><path d="M57.66,173.83q.66,9.13,3.47,9.13c2.82,0,5.2-1.78,6.44-1.78.9,0,.7,1.12.1,2s-2.89,1.35-2.89,2.42,1.9.24,1.9.88c0,1,.33,3-1.49,3s-7.58-.27-8.49-3c-.58-1.77-.5-5.82-.67-11.36l-.34,0a2.86,2.86,0,0,0-2,4.9c-.66.93-1.4,1.9-2.25,2.91C48.26,181,45.89,175.37,49,170a7.05,7.05,0,0,1,5.12-4.7,8.25,8.25,0,0,1,5.43-.4,17.78,17.78,0,0,1,6.88,1.83c0,3-.59,3.94-5.61,3.86A9.24,9.24,0,0,0,57.66,173.83Z" fill="inherit"/></g><g id="change2_13"><path d="M104.19,248.42c3.42-4.64,12-1.57,12,2.27,0,10.07-9.21,57.9-9.69,60.92s-5.62,4-5.92.24c-.48-6-1.37-26.82-.48-36.5.26-2.83.53-5.56.81-8.12q-7.26,13-22.05,36.81l-5.48-2.51q6.47-21.27,10.59-30c4.72-10,9.14-18.57,11-21.59C97.39,245.92,101.38,246.45,104.19,248.42Z" fill="#ffffff" fill-rule="evenodd"/></g><g id="change3_23"><path d="M103.06,314.67h-.13a2.8,2.8,0,0,1-2.77-2.79c-.42-5.39-1.38-26.64-.47-36.56.19-2.14.4-4.26.61-6.32-4.81,8.55-11.93,20.39-21.16,35.23a.37.37,0,0,1-.47.15l-5.48-2.51a.39.39,0,0,1-.21-.45c4.29-14.13,7.86-24.26,10.61-30.09,4.94-10.47,9.28-18.8,11-21.62h0a6.23,6.23,0,0,1,4-3.06,7.46,7.46,0,0,1,5.45,1.26c2.1-2.52,5.6-2.52,8-1.72,2.63.86,4.39,2.67,4.39,4.5,0,8.4-6.38,43-8.78,56-.5,2.71-.83,4.5-.91,5A3.8,3.8,0,0,1,103.06,314.67Zm-2.19-47.82.11,0a.37.37,0,0,1,.26.4c-.28,2.62-.55,5.35-.81,8.11-.9,9.89,0,31.06.48,36.44a2,2,0,0,0,2,2.1,3.05,3.05,0,0,0,3.14-2.36c.08-.52.41-2.31.91-5,2.4-13,8.76-47.52,8.77-55.85,0-1.5-1.55-3-3.87-3.79s-5.58-.74-7.41,1.74a.38.38,0,0,1-.52.09,6.81,6.81,0,0,0-5.16-1.34,5.49,5.49,0,0,0-3.56,2.71c-1.73,2.8-6,11.11-11,21.55-2.71,5.76-6.24,15.74-10.47,29.68l4.88,2.23c9.73-15.65,17.08-27.93,21.86-36.52A.37.37,0,0,1,100.87,266.85Z" fill="inherit"/></g><g id="change2_14"><path d="M73.73,293.65l18.82-44.57c4.51-7.25,17.14,1.48,15.61,5.68-3.49,9.55-21.24,40.46-22.28,43.3Z" fill="#ffffff" fill-rule="evenodd"/></g><g id="change3_24"><path d="M85.88,298.44l-.13,0L73.61,294a.38.38,0,0,1-.22-.21.37.37,0,0,1,0-.29L92.2,248.94c2-3.3,5.9-3.94,10.35-1.77,3.58,1.75,6.88,5.2,6,7.72-2.27,6.2-10.38,21.12-16.31,32-3.13,5.76-5.61,10.31-6,11.29A.38.38,0,0,1,85.88,298.44Zm-11.65-5,11.44,4.15c.65-1.46,2.89-5.56,5.87-11,5.92-10.87,14-25.76,16.26-31.91.68-1.84-1.93-5-5.58-6.79-1.52-.74-6.7-2.83-9.35,1.44Z" fill="inherit"/></g><g id="change2_15"><path d="M116.62,254.17c0,12.63-5.54,42.33-5.54,45.11l-13.41-.45q3.51-38.73,3-39c-.82-.4-33.86,4.57-43.77,5-14.29.54-20.2-8.23-20.68-24.87H63.86q35.49,4.25,46.66,5.9C115.3,246.53,116.62,250.69,116.62,254.17Z" fill="#ffffff" fill-rule="evenodd"/></g><g id="change3_25"><path d="M111.08,299.66h0l-13.42-.45a.38.38,0,0,1-.36-.41c2.65-29.15,3.14-37.26,3-38.63-1.13,0-7.37.83-13.94,1.68-10.61,1.38-23.81,3.1-29.52,3.31-6.17.23-10.82-1.21-14.24-4.41-4.31-4-6.54-10.83-6.83-20.81a.41.41,0,0,1,.11-.28.37.37,0,0,1,.27-.11H63.86c23.6,2.82,39.31,4.8,46.72,5.9h0c5.79.86,6.42,6.38,6.42,8.72,0,8.64-2.54,24.94-4.22,35.74-.74,4.76-1.32,8.52-1.32,9.37a.4.4,0,0,1-.12.27A.36.36,0,0,1,111.08,299.66Zm-13-1.19,12.66.43c.1-1.32.62-4.67,1.31-9.11,1.68-10.77,4.21-27,4.21-35.62,0-2.14-.57-7.21-5.78-8-7.41-1.1-23.1-3.08-46.66-5.89H36.56c.33,9.56,2.48,16.07,6.58,19.9,3.26,3.06,7.74,4.45,13.7,4.21,5.68-.21,18.86-1.93,29.45-3.3,11.22-1.46,14.11-1.8,14.5-1.61S101.58,259.88,98.07,298.47Z" fill="inherit"/></g><g id="change3_26"><path d="M99.83,304.67a1,1,0,0,1,1.27-.47h0a7.68,7.68,0,0,0,2.93.86,8.56,8.56,0,0,0,3.39-1l.8-1.94h0a.48.48,0,0,1,.63-.24l12.48,5.56c1,.15,2.24.31,3.75.5s1.9,1.43,1.21,3.73H99.44a23.36,23.36,0,0,1-.43-3.76,10.39,10.39,0,0,1,.8-3.19A.14.14,0,0,0,99.83,304.67Z" data-name="Accessories/Shoe/Flat-Sneaker" fill="inherit"/></g><g id="change3_27"><path d="M71.92,300.14a1,1,0,0,1,1.32.23h0a7.82,7.82,0,0,0,2.11,2.2,8.48,8.48,0,0,0,3.43.85l1.67-1.28h0a.47.47,0,0,1,.66.1l8,11.06c.79.62,1.79,1.39,3,2.3s.94,2.19-.82,3.84L68.07,306a24,24,0,0,1,1.51-3.47,10.25,10.25,0,0,1,2.28-2.37Z" data-name="Accessories/Shoe/Flat-Sneaker" fill="inherit"/></g><g id="change1_8"><path d="M101.15,311.68h21.9a1.66,1.66,0,0,1,1.66,1.67h0a1.66,1.66,0,0,1-1.66,1.66h-21.9a1.66,1.66,0,0,1-1.66-1.66h0A1.66,1.66,0,0,1,101.15,311.68Z" fill="#a4ced1" fill-rule="evenodd"/></g><g id="change3_28"><path d="M108.05,311.21a8.57,8.57,0,1,1-12.37-7.67l-5.39-32.79H31.89a1.91,1.91,0,0,1-1.9-1.91V247.42a4.76,4.76,0,0,1,4.76-4.76h52a4.75,4.75,0,0,1,4.69,4l9.21,56.07A8.56,8.56,0,0,1,108.05,311.21Z" fill="inherit" fill-rule="evenodd"/></g><g id="change1_9"><path d="M36.18,246.47a36.18,36.18,0,1,0,36.17,36.18A36.18,36.18,0,0,0,36.18,246.47Zm29.44,34.27H40.77l17.57-17.57A29.39,29.39,0,0,1,65.62,280.74ZM38.08,253.2a29.37,29.37,0,0,1,17.57,7.28L38.08,278.05Zm-3.81,24.85L16.7,260.48a29.39,29.39,0,0,1,17.57-7.28Zm0,34a29.39,29.39,0,0,1-17.57-7.28l17.57-17.57Zm3.81-24.85,17.57,17.57a29.37,29.37,0,0,1-17.57,7.28ZM14,263.17l17.57,17.57H6.73A29.39,29.39,0,0,1,14,263.17ZM6.73,284.55H31.58L14,302.12A29.37,29.37,0,0,1,6.73,284.55Zm51.61,17.57L40.77,284.55H65.62A29.37,29.37,0,0,1,58.34,302.12Z" fill="#a4ced1" fill-rule="evenodd"/></g><g id="change2_16"><path d="M80.79,242l15,6.23q6.38,7.5,7.13,6.25c.76-1.25-.88-2.35-.51-3.28s3.23-.82,5.94-.61,1.92-1,1.26-1.59a40.51,40.51,0,0,0-10.32-4.15L84.15,233.72ZM19.71,264.51c-.69,1.39-5.73,5.59-9.24,8-1.4,1-.82,2.2-.29,2.53,4.32,2.66,7.16-.49,10.9-2.23,4.1-1.9,3.75,3.48,7,2-1-2.23-3.33-6.39-2.23-9.12q.73-1.81,9.95-31.56l-9.95,0Q21.1,261.69,19.71,264.51Z" fill="#ffffff" fill-rule="evenodd"/></g><g id="change3_29"><path d="M13.48,276.44a6.59,6.59,0,0,1-3.5-1.09,1.78,1.78,0,0,1-.76-1.41,2.05,2.05,0,0,1,1-1.75c3.49-2.39,8.48-6.56,9.11-7.84h0c.91-1.85,3-12.05,6.11-30.31a.38.38,0,0,1,.37-.31h0l9.95,0a.36.36,0,0,1,.3.15.39.39,0,0,1,.06.33c-6.21,20-9.46,30.36-10,31.59-.89,2.21.7,5.59,1.75,7.83.18.36.33.7.47,1a.39.39,0,0,1-.19.5c-1.77.79-2.67-.22-3.46-1.11s-1.61-1.81-3.53-.92c-.82.39-1.61.84-2.38,1.29C17.1,275.45,15.4,276.44,13.48,276.44Zm12.69-42C23,252.87,21,262.75,20,264.68h0c-.77,1.56-6.14,5.93-9.35,8.13a1.37,1.37,0,0,0-.72,1.11,1,1,0,0,0,.41.79c3.16,2,5.45.62,8.1-.93.78-.45,1.59-.92,2.44-1.32,2.43-1.13,3.53.11,4.41,1.1.69.78,1.21,1.37,2.24,1.06l-.29-.63c-1.11-2.36-2.79-5.91-1.78-8.43.48-1.18,3.77-11.63,9.79-31.05Zm-6.46,30h0Zm82.92-9.46c-.71,0-2.21-.83-7-6.49l-14.95-6.2a.36.36,0,0,1-.2-.48l3.35-8.3a.38.38,0,0,1,.57-.16l15.13,11.1a42,42,0,0,1,10.35,4.17c.36.32,1,1,.75,1.67s-1.43.68-2.24.62c-4.33-.33-5.41,0-5.56.39s.08.59.28,1a2.2,2.2,0,0,1,.2,2.32.72.72,0,0,1-.58.36ZM81.28,241.81,96,247.9a.31.31,0,0,1,.14.11c5.33,6.25,6.39,6.35,6.54,6.29.29-.48.1-.92-.24-1.59a2,2,0,0,1-.3-1.63c.43-1.08,2.73-1.12,6.31-.85,1.33.11,1.49-.17,1.49-.17s-.09-.38-.51-.77a41.28,41.28,0,0,0-10.16-4.06.31.31,0,0,1-.13-.06L84.32,234.31Z" fill="inherit"/></g><g id="change2_17"><path d="M54.12,192.36l4.12-.7c15.27,13.19,21.54,38.53,40.26,52L94,249.21C61.52,245.18,53.47,214.27,54.12,192.36Z" fill="#ffffff" fill-rule="evenodd"/></g><g id="change3_30"><path d="M94,249.58h0C63.17,245.77,53,217.52,53.74,192.35a.38.38,0,0,1,.32-.36l4.11-.7a.38.38,0,0,1,.31.08c7,6,12,14.43,17.31,23.32,6.28,10.49,12.77,21.34,22.93,28.63a.37.37,0,0,1,.15.25.34.34,0,0,1-.08.29l-4.5,5.58A.39.39,0,0,1,94,249.58Zm-39.5-56.9c-.65,24.7,9.35,52.29,39.34,56.13L98,243.69c-10.1-7.37-16.56-18.17-22.81-28.62-5.25-8.78-10.21-17.07-17-23Z" fill="inherit"/></g><g id="change1_10"><path d="M49.59,189.82l10.5,1.65c0,19.92,10.84,35,13.62,49,.24,1.22,2.89,3.09,1.22,3.09H38.51C40.23,220.48,40.9,203.8,49.59,189.82Z" fill="#a4ced1" fill-rule="evenodd"/></g><g id="change2_18"><path d="M36.47,203.56a6,6,0,0,1-3.63-3.07c-3.84-6.93-2.45-10.74,1.65-12s7.77,1.32,14.31,1.32a7.12,7.12,0,0,1,1,.07l3.29.19q14.16,48,7.81,64H32.2a98.1,98.1,0,0,1-4.87,10H19.52Q18.41,228.43,36.47,203.56Z" fill="#ffffff" fill-rule="evenodd"/></g><g id="change3_31"><path d="M27.33,264.46H19.52a.38.38,0,0,1-.38-.37c-.73-23.54,4.9-43.84,16.73-60.34a6.46,6.46,0,0,1-3.35-3.08c-2.19-3.94-2.83-7.09-1.9-9.38a5.49,5.49,0,0,1,3.77-3.15c2.34-.72,4.55-.23,7.1.33a31.86,31.86,0,0,0,7.31,1,6.58,6.58,0,0,1,1,.07l3.25.19a.35.35,0,0,1,.34.26c9.42,31.91,12,53.53,7.8,64.25a.38.38,0,0,1-.35.24H32.45a97.38,97.38,0,0,1-4.8,9.81A.38.38,0,0,1,27.33,264.46Zm-7.45-.75h7.23a101.51,101.51,0,0,0,4.75-9.77.37.37,0,0,1,.34-.23H60.61c4-10.62,1.4-31.9-7.83-63.27l-3-.17a5.73,5.73,0,0,0-1-.07,32.92,32.92,0,0,1-7.47-1c-2.55-.57-4.56-1-6.73-.36a4.83,4.83,0,0,0-3.29,2.72c-.82,2-.18,5.06,1.86,8.74a5.69,5.69,0,0,0,3.4,2.89.38.38,0,0,1,.2.58C24.9,220.13,19.22,240.29,19.88,263.71Z" fill="inherit"/></g><g id="change3_32"><path d="M130.84,35.34A31.85,31.85,0,1,0,99,67.18,31.88,31.88,0,0,0,130.84,35.34Zm-62.94,0A31.1,31.1,0,1,1,99,66.43,31.13,31.13,0,0,1,67.9,35.34ZM119,88.12a.38.38,0,0,0-.25-.09h-1.19c-.17,0-.32,0-.52,0l-.71,0a.45.45,0,0,0-.18.07c-10.92,1-19.45,10-19.45,20.67a20.25,20.25,0,0,0,5.74,14c4.4,5.07,5.8,11.71,6.25,15.33a2.35,2.35,0,0,0-.59,1.56,2.38,2.38,0,0,0,1.24,2.09v.66a2.38,2.38,0,0,0,0,4.18v.6a2.39,2.39,0,0,0,1.15,4.48h.4a4.21,4.21,0,0,0,4.21,4.2h5a4.22,4.22,0,0,0,4.21-4.2h.53a2.38,2.38,0,0,0,.86-4.61v-.34a2.38,2.38,0,0,0,0-4.45v-.39a2.38,2.38,0,0,0,1.53-2.22,2.35,2.35,0,0,0-.77-1.74c.46-3.59,1.88-10.14,6.21-15.14a20.27,20.27,0,0,0,5.76-14C138.36,98.2,129.85,89.16,119,88.12ZM124.88,142v.37H110.05V142Zm0,5.2H110.05v-.36h14.83Zm-4.85,8h-5a3.46,3.46,0,0,1-3.46-3.44h11.89A3.47,3.47,0,0,1,120,155.17Zm6.38-5.84a1.65,1.65,0,0,1-1.64,1.64H110.45a1.63,1.63,0,0,1-.76-3.07h15.56a.47.47,0,0,0,.17,0A1.61,1.61,0,0,1,126.41,149.33Zm0-4.78a1.62,1.62,0,0,1-1,1.49H109.81a1.63,1.63,0,0,1-1-1.5,1.62,1.62,0,0,1,1-1.48h15.48l.1,0A1.6,1.6,0,0,1,126.41,144.55Zm0-4.84a1.62,1.62,0,0,1-1.07,1.51l-.09,0H109.79a1.64,1.64,0,0,1-1-1.49,1.66,1.66,0,0,1,.4-1.06H126A1.66,1.66,0,0,1,126.41,139.71Zm5.64-17.38c-4.49,5.18-5.94,11.91-6.4,15.57H109.37c-.48-3.73-1.93-10.42-6.41-15.59a19.49,19.49,0,0,1-5.55-13.52c0-10.28,8.31-19,18.93-19.94a.3.3,0,0,0,.15,0l.52,0h1.48a.4.4,0,0,0,.19.07c10.61.9,18.93,9.66,18.93,19.94A19.54,19.54,0,0,1,132.05,122.33ZM354.73,84.05a9.32,9.32,0,1,0,9.32,9.32A9.33,9.33,0,0,0,354.73,84.05Zm0,17.89a8.57,8.57,0,1,1,8.57-8.57A8.59,8.59,0,0,1,354.73,101.94Zm18.95-4.06a19.56,19.56,0,0,0,.51-4.46,20,20,0,0,0-.5-4.42L377,85.26a.38.38,0,0,0,0-.44l-3.89-6.6a.38.38,0,0,0-.42-.17L368,79.24a19.39,19.39,0,0,0-7.65-4.4l-1.53-4.68a.37.37,0,0,0-.36-.26h-7.66a.38.38,0,0,0-.36.27l-1.36,4.69a19.41,19.41,0,0,0-7.6,4.41l-4.78-1.22a.37.37,0,0,0-.41.17l-3.9,6.6a.38.38,0,0,0,.05.44l3.39,3.85a19.5,19.5,0,0,0-.48,4.31,19.71,19.71,0,0,0,.51,4.47l-3.29,3.42a.38.38,0,0,0-.05.44l3.82,6.65a.38.38,0,0,0,.4.18l4.75-1A19.46,19.46,0,0,0,349,112l1.58,4.8a.4.4,0,0,0,.36.26h0l7.66,0a.37.37,0,0,0,.36-.27l1.35-4.7a19.57,19.57,0,0,0,7.7-4.43l4.75,1a.39.39,0,0,0,.41-.18l3.81-6.65a.36.36,0,0,0,0-.44Zm-1,9.91-4.68-1a.37.37,0,0,0-.33.1,18.78,18.78,0,0,1-7.73,4.45.35.35,0,0,0-.26.25l-1.33,4.63-7.11,0-1.56-4.73a.4.4,0,0,0-.25-.24,18.69,18.69,0,0,1-7.55-4.39.35.35,0,0,0-.26-.1h-.07l-4.68,1-3.54-6.17,3.24-3.36a.4.4,0,0,0,.09-.35,18.77,18.77,0,0,1-.54-4.49,19,19,0,0,1,.5-4.32.39.39,0,0,0-.08-.34L333.21,85l3.61-6.13,4.7,1.21a.4.4,0,0,0,.36-.1,18.75,18.75,0,0,1,7.64-4.43.37.37,0,0,0,.25-.25l1.34-4.62h7.11l1.51,4.61a.36.36,0,0,0,.25.24,18.77,18.77,0,0,1,7.69,4.43A.38.38,0,0,0,368,80l4.61-1.18L376.24,85,373,88.65a.39.39,0,0,0-.08.34,18.86,18.86,0,0,1,0,8.92.38.38,0,0,0,.09.35l3.24,3.36ZM118.37,30.87,98.28,42a.41.41,0,0,1-.18,0,.38.38,0,0,1-.19,0,.37.37,0,0,1-.19-.33V18.63a.38.38,0,0,1,.75,0V41.07L118,30.21a.38.38,0,0,1,.36.66Z" fill="inherit"/></g><g id="change3_33"><path d="M278.17,176.59a.38.38,0,0,1-.37-.3c-.17-.79-4.13-19.24-4-21.36s1.93-23.09,1.95-23.31a.38.38,0,0,1,.4-.34.39.39,0,0,1,.35.41c0,.21-1.82,21.23-2,23.29-.1,1.62,2.55,14.54,4,21.15a.38.38,0,0,1-.28.45Z" fill="inherit"/></g><g id="change5_2"><path d="M407.4,223.21l-6.95.45a1.87,1.87,0,0,1-.34,0,1.78,1.78,0,0,1-1.75-1.21,2.21,2.21,0,0,1-1.43-1.59,1.85,1.85,0,0,1-.93-.64l-1.28,1.12a2.88,2.88,0,0,1-3.21,1.47l-.65-.21,2.8-4.35,3.95-2.83.21,0c.22,0,5.34.8,7.19,1.33a13.91,13.91,0,0,0,2.39.41Z" fill="#f2dcd1"/></g><g id="change3_34"><path d="M260.44,109.42a.38.38,0,0,1-.37-.31.37.37,0,0,1,.31-.43c.09,0,9.65-1.69,11.51-6.46S273,86.58,273,86.48a.38.38,0,0,1,.34-.41.37.37,0,0,1,.41.35c0,.45.82,11-1.14,16.07s-11.68,6.86-12.09,6.93Z" fill="inherit"/></g><g id="change3_35"><path d="M419.54,227.94h0l-12.1-1.29a.37.37,0,0,1-.33-.37v-9a.37.37,0,0,1,.37-.38H417.6l-1-16.76a.38.38,0,0,1,.35-.4.39.39,0,0,1,.4.36l1.05,17.15a.35.35,0,0,1-.1.28.36.36,0,0,1-.27.12H407.82v8.26l11.76,1.25a.38.38,0,0,1,.33.41A.37.37,0,0,1,419.54,227.94Z" fill="inherit"/></g></svg>